<svg id="ehqoVXxMr6B1" xmlns="http://www.w3.org/2000/svg" xmlns:xlink="http://www.w3.org/1999/xlink" viewBox="0 0 640 480" shape-rendering="geometricPrecision" text-rendering="geometricPrecision"><g transform="matrix(1.5 0 0 1.5-211.906379-94.953624)"><g transform="translate(30 0)"><line x1="-27.22925" y1="0" x2="27.229249" y2="0" transform="translate(442.179448 304.627144)" fill="none" stroke="#000" stroke-width="5" stroke-linecap="round" stroke-linejoin="round"/><line x1="27.229249" y1="-30.426117" x2="-27.22925" y2="30.426118" transform="translate(442.179448 335.053261)" fill="none" stroke="#000" stroke-width="5" stroke-linecap="round" stroke-linejoin="round"/><line x1="-27.229249" y1="0" x2="27.229249" y2="0" transform="translate(442.179448 365.479379)" fill="none" stroke="#000" stroke-width="5" stroke-linecap="round" stroke-linejoin="round"/></g><g transform="translate(-35 0)"><line x1="-27.22925" y1="0" x2="27.229249" y2="0" transform="translate(442.179448 304.627144)" fill="none" stroke="#000" stroke-width="5" stroke-linecap="round" stroke-linejoin="round"/><line x1="27.229249" y1="-30.426117" x2="-27.22925" y2="30.426118" transform="translate(442.179448 335.053261)" fill="none" stroke="#000" stroke-width="5" stroke-linecap="round" stroke-linejoin="round"/><line x1="-27.229249" y1="0" x2="27.229249" y2="0" transform="translate(442.179448 365.479379)" fill="none" stroke="#000" stroke-width="5" stroke-linecap="round" stroke-linejoin="round"/></g><g transform="translate(-35 0)"><line x1="-60.028104" y1="54.72609" x2="65.885977" y2="-54.72609" transform="matrix(.911091 0 0 0.999998 340.06976 304.753398)" fill="none" stroke="#000" stroke-width="15" stroke-linecap="round" stroke-linejoin="round"/><line x1="50.126574" y1="0" x2="-50.126573" y2="0" transform="translate(349.971306 250.027417)" fill="none" stroke="#000" stroke-width="15" stroke-linecap="round" stroke-linejoin="round"/><line x1="-60.028119" y1="0" x2="60.02812" y2="0" transform="translate(343.069761 365.479379)" fill="none" stroke="#000" stroke-width="5" stroke-linecap="round" stroke-linejoin="round"/></g><g transform="translate(.000001 0)"><g transform="translate(.000001 0)"><path d="M-149.646236,0c0-82.647334,66.998902-149.646236,149.646236-149.646236s149.646236,66.998902,149.646236,149.646236" transform="translate(350.891788 250.027417)" fill="none" stroke="#000" stroke-width="15"/><path d="M-149.646236,0c0-82.647334,66.998902-149.646236,149.646236-149.646236s149.646236,66.998902,149.646236,149.646236" transform="matrix(.789319-.613983 0.613983 0.789319 351.269768 251.618543)" fill="none" stroke="#000" stroke-width="15" stroke-linecap="round"/><path d="M-149.646236,0c0-82.647334,66.998902-149.646236,149.646236-149.646236s149.646236,66.998902,149.646236,149.646236" transform="matrix(.975087 0.221822-.221822 0.975087 351.269767 251.61854)" fill="none" stroke="#000" stroke-width="15" stroke-linecap="round"/></g><line x1="-24.566571" y1="29.67855" x2="24.566571" y2="-29.67855" transform="translate(225.812124 130.059731)" fill="none" stroke="#000" stroke-width="20" stroke-linecap="round"/><line x1="-24.566571" y1="29.67855" x2="24.566571" y2="-29.67855" transform="matrix(1 0 0-1 475.971454 130.357509)" fill="none" stroke="#000" stroke-width="20" stroke-linecap="round"/></g></g></svg>